<svg xmlns="http://www.w3.org/2000/svg" width="1600" height="900" viewBox="0 0 1600 900">
  <title>Governed A2A-MCP Architecture Overview</title>
  <desc>Editable SVG architecture diagram for a governed A2A and MCP multi-agent communication network.</desc>
  <rect width="1600" height="900" fill="#ffffff"/>
  <text x="60" y="70" font-family="Arial, Helvetica, sans-serif" font-size="36" font-weight="700" fill="#102033">Governed A2A-MCP Multi-Agent Communication Network</text>
  <text x="60" y="108" font-family="Arial, Helvetica, sans-serif" font-size="18" fill="#53616f">Travel-planning demo with data plane, control plane, governance plane, and observability plane</text>

  <rect x="52" y="132" width="1496" height="704" rx="10" fill="#f7fafc" stroke="#d8e0e8" stroke-width="2"/>

  <rect x="88" y="172" width="200" height="94" rx="8" fill="#ffffff" stroke="#294766" stroke-width="2"/>
  <text x="188" y="207" text-anchor="middle" font-family="Arial, Helvetica, sans-serif" font-size="22" font-weight="700" fill="#102033">User</text>
  <text x="188" y="236" text-anchor="middle" font-family="Arial, Helvetica, sans-serif" font-size="15" fill="#53616f">travel query</text>

  <rect x="396" y="160" width="256" height="118" rx="8" fill="#e9f7fb" stroke="#148ba5" stroke-width="2.5"/>
  <text x="524" y="200" text-anchor="middle" font-family="Arial, Helvetica, sans-serif" font-size="24" font-weight="700" fill="#102033">Coordinator</text>
  <text x="524" y="230" text-anchor="middle" font-family="Arial, Helvetica, sans-serif" font-size="15" fill="#53616f">DAG scheduling</text>
  <text x="524" y="252" text-anchor="middle" font-family="Arial, Helvetica, sans-serif" font-size="15" fill="#53616f">task aggregation</text>

  <rect x="382" y="42" width="126" height="64" rx="7" fill="#ffffff" stroke="#8da0b4" stroke-width="2"/>
  <text x="445" y="73" text-anchor="middle" font-family="Arial, Helvetica, sans-serif" font-size="15" font-weight="700" fill="#102033">Primary</text>
  <text x="445" y="94" text-anchor="middle" font-family="Arial, Helvetica, sans-serif" font-size="13" fill="#53616f">Registry</text>

  <rect x="540" y="42" width="126" height="64" rx="7" fill="#ffffff" stroke="#8da0b4" stroke-width="2"/>
  <text x="603" y="73" text-anchor="middle" font-family="Arial, Helvetica, sans-serif" font-size="15" font-weight="700" fill="#102033">Backup</text>
  <text x="603" y="94" text-anchor="middle" font-family="Arial, Helvetica, sans-serif" font-size="13" fill="#53616f">Registry</text>

  <rect x="765" y="146" width="262" height="332" rx="10" fill="#ffffff" stroke="#d8e0e8" stroke-width="2"/>
  <text x="896" y="184" text-anchor="middle" font-family="Arial, Helvetica, sans-serif" font-size="24" font-weight="700" fill="#102033">Agent Pool</text>
  <text x="896" y="211" text-anchor="middle" font-family="Arial, Helvetica, sans-serif" font-size="14" fill="#53616f">independent worker processes</text>

  <rect x="802" y="238" width="188" height="38" rx="7" fill="#f3fbfd" stroke="#148ba5" stroke-width="1.7"/>
  <text x="896" y="263" text-anchor="middle" font-family="Arial, Helvetica, sans-serif" font-size="15" font-weight="700" fill="#102033">Weather Agent</text>
  <rect x="802" y="292" width="188" height="38" rx="7" fill="#f3fbfd" stroke="#148ba5" stroke-width="1.7"/>
  <text x="896" y="317" text-anchor="middle" font-family="Arial, Helvetica, sans-serif" font-size="15" font-weight="700" fill="#102033">Attraction Agent</text>
  <rect x="802" y="346" width="188" height="38" rx="7" fill="#f3fbfd" stroke="#148ba5" stroke-width="1.7"/>
  <text x="896" y="371" text-anchor="middle" font-family="Arial, Helvetica, sans-serif" font-size="15" font-weight="700" fill="#102033">Hotel Agent</text>
  <rect x="802" y="400" width="188" height="38" rx="7" fill="#f3fbfd" stroke="#148ba5" stroke-width="1.7"/>
  <text x="896" y="425" text-anchor="middle" font-family="Arial, Helvetica, sans-serif" font-size="15" font-weight="700" fill="#102033">Traffic Agent</text>
  <rect x="802" y="454" width="188" height="38" rx="7" fill="#f3fbfd" stroke="#148ba5" stroke-width="1.7"/>
  <text x="896" y="479" text-anchor="middle" font-family="Arial, Helvetica, sans-serif" font-size="15" font-weight="700" fill="#102033">Packing Agent</text>

  <rect x="1120" y="226" width="240" height="138" rx="10" fill="#fff7eb" stroke="#d9861c" stroke-width="2.5"/>
  <text x="1240" y="268" text-anchor="middle" font-family="Arial, Helvetica, sans-serif" font-size="24" font-weight="700" fill="#102033">MCP Gateway</text>
  <text x="1240" y="299" text-anchor="middle" font-family="Arial, Helvetica, sans-serif" font-size="15" fill="#53616f">routing / cache</text>
  <text x="1240" y="321" text-anchor="middle" font-family="Arial, Helvetica, sans-serif" font-size="15" fill="#53616f">coalescing / metrics</text>
  <text x="1240" y="343" text-anchor="middle" font-family="Arial, Helvetica, sans-serif" font-size="15" fill="#53616f">rate limit / circuit breaker</text>

  <rect x="1420" y="153" width="96" height="48" rx="6" fill="#ffffff" stroke="#8da0b4" stroke-width="1.8"/>
  <text x="1468" y="183" text-anchor="middle" font-family="Arial, Helvetica, sans-serif" font-size="13" font-weight="700" fill="#102033">Weather MCP</text>
  <rect x="1420" y="226" width="96" height="48" rx="6" fill="#ffffff" stroke="#8da0b4" stroke-width="1.8"/>
  <text x="1468" y="256" text-anchor="middle" font-family="Arial, Helvetica, sans-serif" font-size="13" font-weight="700" fill="#102033">Attract MCP</text>
  <rect x="1420" y="299" width="96" height="48" rx="6" fill="#ffffff" stroke="#8da0b4" stroke-width="1.8"/>
  <text x="1468" y="329" text-anchor="middle" font-family="Arial, Helvetica, sans-serif" font-size="13" font-weight="700" fill="#102033">Hotel MCP</text>
  <rect x="1420" y="372" width="96" height="48" rx="6" fill="#ffffff" stroke="#8da0b4" stroke-width="1.8"/>
  <text x="1468" y="402" text-anchor="middle" font-family="Arial, Helvetica, sans-serif" font-size="13" font-weight="700" fill="#102033">Traffic MCP</text>
  <rect x="1420" y="445" width="96" height="48" rx="6" fill="#ffffff" stroke="#8da0b4" stroke-width="1.8"/>
  <text x="1468" y="475" text-anchor="middle" font-family="Arial, Helvetica, sans-serif" font-size="13" font-weight="700" fill="#102033">Packing MCP</text>

  <rect x="86" y="590" width="320" height="150" rx="10" fill="#ffffff" stroke="#d8e0e8" stroke-width="2"/>
  <text x="246" y="628" text-anchor="middle" font-family="Arial, Helvetica, sans-serif" font-size="21" font-weight="700" fill="#102033">Control Plane</text>
  <text x="246" y="660" text-anchor="middle" font-family="Arial, Helvetica, sans-serif" font-size="15" fill="#53616f">Agent registration</text>
  <text x="246" y="684" text-anchor="middle" font-family="Arial, Helvetica, sans-serif" font-size="15" fill="#53616f">capability discovery</text>
  <text x="246" y="708" text-anchor="middle" font-family="Arial, Helvetica, sans-serif" font-size="15" fill="#53616f">primary-backup failover</text>

  <rect x="448" y="590" width="320" height="150" rx="10" fill="#ffffff" stroke="#d8e0e8" stroke-width="2"/>
  <text x="608" y="628" text-anchor="middle" font-family="Arial, Helvetica, sans-serif" font-size="21" font-weight="700" fill="#102033">Data Plane</text>
  <text x="608" y="660" text-anchor="middle" font-family="Arial, Helvetica, sans-serif" font-size="15" fill="#53616f">A2A TCP dispatch</text>
  <text x="608" y="684" text-anchor="middle" font-family="Arial, Helvetica, sans-serif" font-size="15" fill="#53616f">Length-prefixed JSON frames</text>
  <text x="608" y="708" text-anchor="middle" font-family="Arial, Helvetica, sans-serif" font-size="15" fill="#53616f">TASK_REQUEST / TASK_RESULT</text>

  <rect x="810" y="590" width="320" height="150" rx="10" fill="#ffffff" stroke="#d8e0e8" stroke-width="2"/>
  <text x="970" y="628" text-anchor="middle" font-family="Arial, Helvetica, sans-serif" font-size="21" font-weight="700" fill="#102033">Governance Plane</text>
  <text x="970" y="660" text-anchor="middle" font-family="Arial, Helvetica, sans-serif" font-size="15" fill="#53616f">Gateway routing</text>
  <text x="970" y="684" text-anchor="middle" font-family="Arial, Helvetica, sans-serif" font-size="15" fill="#53616f">cache + request coalescing</text>
  <text x="970" y="708" text-anchor="middle" font-family="Arial, Helvetica, sans-serif" font-size="15" fill="#53616f">rate limit + circuit breaker</text>

  <rect x="1172" y="590" width="320" height="150" rx="10" fill="#ffffff" stroke="#d8e0e8" stroke-width="2"/>
  <text x="1332" y="628" text-anchor="middle" font-family="Arial, Helvetica, sans-serif" font-size="21" font-weight="700" fill="#102033">Observability Plane</text>
  <text x="1332" y="660" text-anchor="middle" font-family="Arial, Helvetica, sans-serif" font-size="15" fill="#53616f">trace_id / span_id</text>
  <text x="1332" y="684" text-anchor="middle" font-family="Arial, Helvetica, sans-serif" font-size="15" fill="#53616f">packet logs + protocol payloads</text>
  <text x="1332" y="708" text-anchor="middle" font-family="Arial, Helvetica, sans-serif" font-size="15" fill="#53616f">Streamlit topology UI</text>

  <!-- arrows -->
  <line x1="288" y1="219" x2="386" y2="219" stroke="#294766" stroke-width="3"/>
  <polygon points="386,219 371,211 371,227" fill="#294766"/>
  <text x="337" y="203" text-anchor="middle" font-family="Arial, Helvetica, sans-serif" font-size="14" fill="#294766">HTTP</text>

  <line x1="652" y1="219" x2="755" y2="219" stroke="#148ba5" stroke-width="3"/>
  <polygon points="755,219 740,211 740,227" fill="#148ba5"/>
  <text x="704" y="203" text-anchor="middle" font-family="Arial, Helvetica, sans-serif" font-size="14" fill="#148ba5">A2A TCP</text>

  <line x1="1027" y1="305" x2="1110" y2="305" stroke="#d9861c" stroke-width="3"/>
  <polygon points="1110,305 1095,297 1095,313" fill="#d9861c"/>
  <text x="1068" y="289" text-anchor="middle" font-family="Arial, Helvetica, sans-serif" font-size="14" fill="#d9861c">JSON-RPC</text>

  <line x1="1360" y1="295" x2="1410" y2="177" stroke="#d9861c" stroke-width="2.5"/>
  <polygon points="1410,177 1396,187 1411,193" fill="#d9861c"/>
  <line x1="1360" y1="295" x2="1410" y2="250" stroke="#d9861c" stroke-width="2.5"/>
  <polygon points="1410,250 1393,253 1404,265" fill="#d9861c"/>
  <line x1="1360" y1="305" x2="1410" y2="323" stroke="#d9861c" stroke-width="2.5"/>
  <polygon points="1410,323 1393,315 1397,331" fill="#d9861c"/>
  <line x1="1360" y1="315" x2="1410" y2="396" stroke="#d9861c" stroke-width="2.5"/>
  <polygon points="1410,396 1396,384 1393,401" fill="#d9861c"/>
  <line x1="1360" y1="325" x2="1410" y2="469" stroke="#d9861c" stroke-width="2.5"/>
  <polygon points="1410,469 1398,456 1393,473" fill="#d9861c"/>

  <line x1="474" y1="106" x2="495" y2="151" stroke="#8da0b4" stroke-width="2.5"/>
  <polygon points="495,151 482,139 478,153" fill="#8da0b4"/>
  <line x1="583" y1="106" x2="555" y2="151" stroke="#8da0b4" stroke-width="2.5"/>
  <polygon points="555,151 570,143 558,136" fill="#8da0b4"/>
  <text x="524" y="132" text-anchor="middle" font-family="Arial, Helvetica, sans-serif" font-size="13" fill="#53616f">HTTP/REST discovery</text>

  <line x1="524" y1="278" x2="524" y2="578" stroke="#148ba5" stroke-width="2" stroke-dasharray="7 6"/>
  <line x1="1240" y1="364" x2="1240" y2="578" stroke="#d9861c" stroke-width="2" stroke-dasharray="7 6"/>
  <line x1="1332" y1="530" x2="1332" y2="578" stroke="#5c6b7a" stroke-width="2" stroke-dasharray="7 6"/>
</svg>
